PathFileType	4	(X/Y/Z)	C:/Users/opensim2020/Desktop/walking_exp_matlab/subject03_walking06_straight_01.trc																																																																																																																																		
DataRate	CameraRate	NumFrames	NumMarkers	Units	OrigDataRate	OrigDataStartFrame	OrigNumFrames																																																																																																																														
100	100	4	44	mm	100	714	362																																																																																																																														
Frame#	Time	LFHD			RFHD			LBHD			RBHD			C7			T10			CLAV			STRN			RBAK			LSHO			LUPA			LELB			LFRM			LWRA			LWRB			LFIN			RSHO			RUPA			RELB			RFRM			RWRA			RWRB			RFIN			LASI			RASI			LPSI			RPSI			LTHI			LKNE			LTIB			LANK			LHEE			LTOE			RTHI			RKNE			RTIB			RANK			RHEE			RTOE			*39			*40			*41			*42			*43		
		X1	Y1	Z1	X2	Y2	Z2	X3	Y3	Z3	X4	Y4	Z4	X5	Y5	Z5	X6	Y6	Z6	X7	Y7	Z7	X8	Y8	Z8	X9	Y9	Z9	X10	Y10	Z10	X11	Y11	Z11	X12	Y12	Z12	X13	Y13	Z13	X14	Y14	Z14	X15	Y15	Z15	X16	Y16	Z16	X17	Y17	Z17	X18	Y18	Z18	X19	Y19	Z19	X20	Y20	Z20	X21	Y21	Z21	X22	Y22	Z22	X23	Y23	Z23	X24	Y24	Z24	X25	Y25	Z25	X26	Y26	Z26	X27	Y27	Z27	X28	Y28	Z28	X29	Y29	Z29	X30	Y30	Z30	X31	Y31	Z31	X32	Y32	Z32	X33	Y33	Z33	X34	Y34	Z34	X35	Y35	Z35	X36	Y36	Z36	X37	Y37	Z37	X38	Y38	Z38	X39	Y39	Z39	X40	Y40	Z40	X41	Y41	Z41	X42	Y42	Z42	X43	Y43	Z43	X44	Y44	Z44
																																																																																																																																					
272	2.71	733.65106	1608.82642	1400.61194	731.53638	1613.23413	1533.88684	602.35602	1573.83679	1403.01428	605.0484	1577.60486	1533.8761	566.46686	1411.24207	1455.17773	535.73035	1095.39099	1452.13013	689.36566	1336.48486	1459.73145	734.96014	1172.75317	1452.35571	510.71448	1232.03857	1544.95398	651.15552	1376.95044	1303.86926	683.17316	1188.92163	1225.66663	727.32001	1074.7373	1212.91064	807.10046	974.26453	1225.40515	876.28064	883.89893	1268.35156	859.3786	873.03137	1216.79907	916.27588	814.7973	1233.47644	632.89478	1356.4718	1617.73523	628.37323	1134.46375	1691.40588	642.97113	1023.09497	1707.25537	660.8363	887.36896	1712.44751	694.79236	792.07349	1680.45117	660.01367	786.88824	1722.0365	683.56451	715.50244	1713.7677	705.23688	935.61371	1332.91431	709.49329	936.20795	1571.03223	544.76758	955.26343	1386.48608	546.04932	957.06134	1535.55457	628.26239	633.54248	1311.97131	605.87012	458.89487	1358.82568	527.79932	277.29266	1363.82886	476.30206	74.85623	1413.22473	432.01425	43.30019	1449.76794	625.01654	35.21127	1433.70032	736.40479	648.41339	1620.37134	820.96667	489.98834	1588.45996	802.34894	300.26028	1594.17419	803.54852	82.60159	1551.64026	763.27911	47.34518	1498.41699	943.48645	53.70705	1534.13965	654.37885	1675.44006	1454.16223	NaN	NaN	NaN	NaN	NaN	NaN	NaN	NaN	NaN	NaN	NaN	NaN
273	2.72	743.46625	1607.56262	1401.44299	741.07233	1611.80249	1534.72046	612.05243	1572.83997	1403.44421	614.52069	1576.40771	1534.34937	575.95917	1410.17273	1455.74207	544.61292	1094.3479	1453.14001	698.57385	1335.12769	1460.00903	743.91376	1171.32654	1452.21875	520.18994	1230.93848	1545.54285	660.17841	1375.78589	1304.36182	692.75421	1188.12598	1225.96033	737.95337	1074.4364	1213.67969	819.35956	975.53839	1226.42529	890.0835	886.8056	1270.09387	873.51886	875.25281	1218.60352	931.59399	818.38495	1235.82056	642.44745	1355.0675	1618.16187	636.75348	1133.00415	1691.776	650.81726	1021.64209	1707.78076	667.51678	885.7002	1713.05188	700.99188	790.15582	1681.37256	666.01971	785.33795	1722.95947	688.73639	713.50299	1714.5293	713.27142	934.42841	1332.6051	718.88568	934.64459	1570.97266	553.46149	954.09607	1387.61511	555.12061	955.77008	1536.46912	634.53827	632.84985	1311.81165	611.05432	458.32803	1358.53418	530.68787	277.35251	1363.81958	476.92313	75.48841	1413.50513	432.177	44.65959	1450.14746	625.25549	35.24626	1433.3623	742.49146	645.95386	1620.76111	827.71765	487.52448	1587.67419	816.96906	297.99182	1593.05054	829.73285	80.53881	1550.16235	791.50433	44.25029	1496.24133	971.12128	56.63729	1533.08069	664.04993	1674.16907	1454.05627	NaN	NaN	NaN	NaN	NaN	NaN	NaN	NaN	NaN	NaN	NaN	NaN
274	2.73	753.22375	1606.3916	1402.25757	750.60303	1610.44299	1535.5575	621.75867	1571.81116	1403.94348	623.98651	1575.22778	1534.89709	585.38867	1409.19812	1456.40918	553.55011	1093.26392	1454.02734	707.87085	1333.79614	1460.29932	752.94403	1169.91138	1452.07703	529.62616	1229.84399	1546.22559	669.22357	1374.60083	1304.86267	702.52032	1187.45862	1226.44141	748.60901	1074.22473	1214.19067	831.26508	976.64093	1227.51831	903.38501	889.508	1271.92981	887.24207	877.33734	1220.40234	946.38245	821.77679	1238.172	652.15778	1353.66821	1618.60217	645.48596	1131.74561	1692.19019	658.94336	1020.21161	1708.35254	674.71448	884.17749	1713.79443	707.40656	788.27307	1682.29858	672.26678	783.77899	1723.74854	694.43115	711.81744	1715.52917	721.42883	933.34625	1332.69397	728.29163	933.11017	1570.94141	561.88696	952.91791	1388.55334	564.48419	954.41742	1537.3158	640.95276	632.11456	1311.68225	616.19409	457.55609	1358.22937	533.56201	277.48404	1364.06335	477.18857	76.29311	1414.07703	432.36069	45.95973	1450.88196	625.31665	35.17406	1433.2655	748.7146	643.56775	1621.53064	834.24078	484.92081	1586.71252	830.49133	295.93018	1591.98047	854.13184	79.29373	1548.81531	817.84381	41.98892	1494.30859	996.72656	59.96542	1532.35071	673.81726	1672.86145	1454.54504	NaN	NaN	NaN	NaN	NaN	NaN	NaN	NaN	NaN	NaN	NaN	NaN
275	2.74	762.93335	1605.22974	1403.06702	760.18311	1609.21521	1536.41968	631.44458	1570.67554	1404.51697	633.58508	1573.97888	1535.50525	594.80157	1408.01257	1457.07385	562.4364	1092.19763	1455.01685	717.30304	1332.50903	1460.64807	762.08459	1168.56555	1451.99072	539.10022	1228.70068	1547.00903	678.31061	1373.44458	1305.44214	712.17047	1186.67395	1226.9093	758.8681	1073.71423	1214.59534	842.94366	977.63904	1228.66675	916.19702	891.86151	1273.74512	900.50171	879.22064	1222.16528	960.60852	824.90472	1240.42175	662.03894	1352.30725	1619.08557	654.34277	1130.28772	1692.55225	667.22437	1018.71814	1708.70886	682.02374	882.64575	1714.46985	714.1286	786.47241	1683.20166	678.7439	782.28094	1724.52148	700.37592	710.12	1716.46179	729.75525	932.43127	1332.47937	737.75922	931.62695	1570.90039	570.72076	951.57904	1389.77014	573.87994	953.06763	1538.1731	647.3175	631.51978	1311.44092	621.42474	457.02002	1358.06006	536.60071	277.82333	1364.34436	477.79306	77.42571	1414.37366	432.59735	47.3344	1451.30005	625.41455	35.09856	1433.33215	755.24847	641.38605	1622.59351	840.479	482.28799	1585.84265	842.72095	294.05978	1590.80994	876.53723	78.57646	1547.68433	842.16321	40.58286	1492.78088	1020.19183	63.40648	1532.02539	683.56238	1671.41284	1455.10083	NaN	NaN	NaN	NaN	NaN	NaN	NaN	NaN	NaN	NaN	NaN	NaN
